<svg xmlns="http://www.w3.org/2000/svg" xmlns:xlink="http://www.w3.org/1999/xlink" width="250" zoomAndPan="magnify" viewBox="0 0 187.5 112.499997" height="150" preserveAspectRatio="xMidYMid meet" version="1.0"><defs><clipPath id="ecf97d4fe1"><path d="M 73.652344 36.746094 L 114.082031 36.746094 L 114.082031 75.679688 L 73.652344 75.679688 Z M 73.652344 36.746094 " clip-rule="nonzero"/></clipPath></defs><g clip-path="url(#ecf97d4fe1)"><path fill="#83d0c0" d="M 112.929688 53.871094 C 112.234375 53.210938 111.40625 52.894531 110.445312 52.921875 C 109.21875 52.957031 108.09375 53.644531 107.503906 54.707031 L 101.765625 55.332031 C 99.804688 55.460938 95.328125 55.34375 95.28125 55.308594 L 95.277344 55.277344 C 95.601562 54.683594 96.648438 53.03125 100.082031 49.554688 C 102.882812 46.714844 104.339844 45.84375 105.625 45.074219 L 106.511719 44.53125 C 106.855469 44.632812 107.21875 44.679688 107.582031 44.671875 C 108.039062 44.660156 108.476562 44.558594 108.894531 44.375 C 109.308594 44.1875 109.675781 43.929688 109.988281 43.597656 C 110.304688 43.269531 110.542969 42.890625 110.707031 42.464844 C 110.871094 42.039062 110.945312 41.601562 110.933594 41.144531 C 110.921875 40.691406 110.820312 40.253906 110.636719 39.839844 C 110.449219 39.421875 110.191406 39.058594 109.859375 38.746094 C 109.527344 38.433594 109.148438 38.195312 108.722656 38.03125 C 108.296875 37.867188 107.855469 37.792969 107.398438 37.804688 C 106.941406 37.816406 106.503906 37.914062 106.085938 38.101562 C 105.671875 38.285156 105.304688 38.546875 104.992188 38.875 C 104.675781 39.207031 104.4375 39.582031 104.273438 40.007812 C 104.109375 40.433594 104.035156 40.875 104.046875 41.328125 C 104.054688 41.636719 104.105469 41.945312 104.199219 42.242188 C 102.988281 43.769531 100.6875 46.117188 98.847656 47.941406 C 96.96875 49.796875 93.980469 52.769531 92.667969 53.738281 C 92.238281 53.570312 89.210938 49.386719 88.371094 47.730469 C 86.5625 44.175781 85.660156 42.648438 85.449219 41.800781 C 85.785156 41.273438 85.949219 40.671875 85.933594 40.042969 C 85.921875 39.628906 85.832031 39.230469 85.660156 38.847656 C 85.492188 38.46875 85.253906 38.136719 84.949219 37.847656 C 84.648438 37.5625 84.300781 37.34375 83.910156 37.195312 C 83.519531 37.046875 83.117188 36.976562 82.699219 36.988281 C 81.859375 37.007812 81.074219 37.359375 80.496094 37.964844 C 79.917969 38.574219 79.609375 39.375 79.632812 40.214844 C 79.679688 41.867188 81 43.195312 82.632812 43.269531 C 83.085938 43.734375 84.613281 45.425781 86.558594 48.996094 C 88.125 51.875 88.972656 54.933594 88.914062 55.242188 C 88.113281 55.351562 86.027344 55.855469 83.25 55.832031 C 80.535156 55.804688 79.511719 55.800781 79.125 55.695312 C 78.828125 54.445312 77.667969 53.53125 76.351562 53.566406 C 75.585938 53.585938 74.941406 53.875 74.414062 54.429688 C 73.902344 54.96875 73.632812 55.667969 73.652344 56.40625 C 73.675781 57.144531 73.96875 57.832031 74.484375 58.335938 C 75.007812 58.847656 75.707031 59.121094 76.445312 59.101562 C 77.5 59.070312 78.566406 58.148438 78.808594 57.546875 C 78.824219 57.511719 78.835938 57.480469 78.84375 57.472656 C 78.882812 57.464844 78.957031 57.453125 79.097656 57.449219 C 79.351562 57.445312 79.734375 57.457031 80.261719 57.476562 L 83.507812 57.550781 C 86.335938 57.574219 87.769531 57.75 88.457031 57.886719 C 87.8125 58.785156 86.332031 60.726562 83.578125 63.773438 C 80.738281 66.914062 79.351562 67.65625 78.492188 68.148438 C 78.230469 68.09375 77.96875 68.070312 77.699219 68.078125 C 76.75 68.101562 75.949219 68.457031 75.296875 69.148438 C 74.664062 69.8125 74.328125 70.683594 74.355469 71.601562 C 74.375 72.550781 74.734375 73.347656 75.425781 74 C 76.09375 74.628906 76.96875 74.964844 77.886719 74.941406 C 78.808594 74.917969 79.660156 74.535156 80.292969 73.871094 C 80.949219 73.183594 81.265625 72.367188 81.238281 71.417969 C 81.226562 71.085938 81.167969 70.753906 81.0625 70.433594 C 81.453125 69.398438 82.894531 67.042969 85.886719 64.304688 L 90.941406 59.578125 C 90.996094 59.535156 91.164062 59.425781 91.292969 59.390625 C 91.300781 59.390625 91.304688 59.390625 91.3125 59.390625 C 91.566406 59.382812 91.996094 59.714844 92.203125 59.9375 C 92.214844 59.953125 94.050781 62.015625 96.253906 66.039062 C 97.46875 68.253906 98.136719 69.757812 98.421875 70.605469 C 97.757812 71.179688 97.441406 71.90625 97.464844 72.78125 C 97.476562 73.152344 97.558594 73.507812 97.710938 73.847656 C 97.859375 74.1875 98.070312 74.484375 98.339844 74.738281 C 98.613281 74.992188 98.921875 75.1875 99.265625 75.320312 C 99.613281 75.453125 99.972656 75.515625 100.347656 75.507812 C 100.71875 75.496094 101.074219 75.414062 101.414062 75.265625 C 101.753906 75.113281 102.050781 74.902344 102.308594 74.632812 C 102.5625 74.363281 102.757812 74.054688 102.890625 73.707031 C 103.023438 73.363281 103.085938 73.003906 103.074219 72.632812 C 103.054688 71.886719 102.746094 71.1875 102.203125 70.671875 C 101.664062 70.164062 101.027344 69.910156 100.289062 69.90625 C 99.777344 68.992188 98.699219 67.527344 97.667969 65.363281 C 95.550781 60.917969 94.8125 58.1875 94.871094 57.8125 C 94.890625 57.726562 94.898438 57.699219 95.027344 57.644531 C 95.3125 57.519531 99.550781 57.242188 101.867188 57.285156 C 104.453125 57.332031 106.949219 57.605469 107.421875 57.910156 C 108.027344 59.128906 109.265625 59.886719 110.632812 59.847656 C 111.09375 59.835938 111.53125 59.734375 111.953125 59.546875 C 112.375 59.359375 112.742188 59.101562 113.058594 58.765625 C 113.375 58.433594 113.617188 58.054688 113.78125 57.625 C 113.945312 57.195312 114.023438 56.75 114.011719 56.292969 C 113.988281 55.335938 113.628906 54.527344 112.929688 53.871094 " fill-opacity="1" fill-rule="nonzero"/></g></svg>